<?xml version="1.0" encoding="UTF-8"?>
<!DOCTYPE svg PUBLIC "-//W3C//DTD SVG 1.1//EN" "http://www.w3.org/Graphics/SVG/1.1/DTD/svg11.dtd">
<svg xmlns="http://www.w3.org/2000/svg" version="1.1" width="200px" height="200px" style="shape-rendering:geometricPrecision; text-rendering:geometricPrecision; image-rendering:optimizeQuality; fill-rule:evenodd; clip-rule:evenodd" xmlns:xlink="http://www.w3.org/1999/xlink">
<g><path style="opacity:1" fill="#fcfcfc" d="M -0.5,-0.5 C 66.1667,-0.5 132.833,-0.5 199.5,-0.5C 199.5,66.1667 199.5,132.833 199.5,199.5C 132.833,199.5 66.1667,199.5 -0.5,199.5C -0.5,132.833 -0.5,66.1667 -0.5,-0.5 Z"/></g>
<g><path style="opacity:1" fill="#252324" d="M 159.5,87.5 C 157.483,88.5294 155.483,89.5294 153.5,90.5C 154.471,88.5168 155.471,86.5168 156.5,84.5C 153.252,86.3037 150.919,88.9704 149.5,92.5C 148.957,92.56 148.624,92.8933 148.5,93.5C 149.718,93.109 150.552,93.7756 151,95.5C 153.105,92.2398 155.271,91.9064 157.5,94.5C 157.331,109.918 156.331,125.251 154.5,140.5C 153.596,141.209 153.263,142.209 153.5,143.5C 152.514,145.426 151.514,147.426 150.5,149.5C 149.662,149.842 149.328,150.508 149.5,151.5C 147.973,151.427 146.973,152.094 146.5,153.5C 138.292,161.765 128.292,165.932 116.5,166C 111.667,168.167 108.167,171.667 106,176.5C 105.294,174.029 105.627,171.695 107,169.5C 108.833,167.667 110.667,165.833 112.5,164C 125.219,163.208 136.386,158.708 146,150.5C 150.901,144.826 152.234,138.493 150,131.5C 147.265,129.268 145.098,126.601 143.5,123.5C 144.325,122.614 145.325,122.281 146.5,122.5C 149.324,118.64 150.158,114.307 149,109.5C 147.989,108.663 146.822,108.33 145.5,108.5C 146.826,111.001 147.326,113.668 147,116.5C 145.994,119.89 143.994,120.89 141,119.5C 140.333,114.167 140.333,108.833 141,103.5C 144.034,96.7917 145.034,89.7917 144,82.5C 143.476,91.738 142.643,91.738 141.5,82.5C 141.108,80.8211 140.608,79.1545 140,77.5C 139.23,76.4019 138.397,76.4019 137.5,77.5C 135.905,72.7441 132.905,69.5775 128.5,68C 132.115,70.7335 133.948,74.2335 134,78.5C 130.959,71.1166 125.792,66.2833 118.5,64C 124.444,68.3952 126.611,74.2285 125,81.5C 124.067,73.0602 119.9,67.2269 112.5,64C 118.047,68.597 121.38,74.4303 122.5,81.5C 121.59,79.9812 120.757,78.3146 120,76.5C 120.155,78.8107 120.155,81.144 120,83.5C 119.529,81.7536 118.862,80.087 118,78.5C 118.015,81.5698 118.682,84.5698 120,87.5C 120.232,86.2625 120.732,85.2625 121.5,84.5C 122.89,96.3028 123.89,108.136 124.5,120C 124.355,120.772 124.022,121.439 123.5,122C 121.658,121.421 119.658,120.921 117.5,120.5C 109.575,122.648 101.575,124.481 93.5,126C 86.2827,127.405 79.616,126.071 73.5,122C 74.1667,121.667 74.8333,121.333 75.5,121C 73.9991,119.748 72.3325,118.748 70.5,118C 72.3008,117.683 72.6341,117.016 71.5,116C 68.0519,114.073 64.3852,112.739 60.5,112C 62.8098,111.503 65.1432,111.337 67.5,111.5C 72.73,113.786 77.73,116.619 82.5,120C 83.5,120.667 84.5,120.667 85.5,120C 80.8333,117.333 76.1667,114.667 71.5,112C 69.7206,108.939 67.054,107.105 63.5,106.5C 62.1667,106.167 60.8333,105.833 59.5,105.5C 62.7167,104.405 66.05,104.571 69.5,106C 74.3433,108.422 79.0099,110.755 83.5,113C 71.5751,101.612 57.5751,97.9457 41.5,102C 44.3647,102.183 47.0314,102.683 49.5,103.5C 45.3776,103.697 41.3776,104.53 37.5,106C 40.634,106.112 42.9673,106.612 44.5,107.5C 42.2872,107.848 40.2872,108.681 38.5,110C 41.6461,109.453 44.6461,109.619 47.5,110.5C 46.5,110.5 45.5,110.5 44.5,110.5C 39.3221,111.602 39.3221,112.435 44.5,113C 43.1667,113.667 41.8333,114.333 40.5,115C 41.5,115.333 42.5,115.667 43.5,116C 41.6675,116.748 40.0009,117.748 38.5,119C 40.2244,119.448 40.891,120.282 40.5,121.5C 41.451,120.674 42.451,120.508 43.5,121C 42.1667,122 40.8333,123 39.5,124C 40.8333,124 42.1667,124 43.5,124C 42.1667,125 40.8333,126 39.5,127C 41.3201,126.524 42.9867,126.691 44.5,127.5C 43.1667,128.167 41.8333,128.833 40.5,129.5C 39.3734,130.122 38.3734,130.955 37.5,132C 39.0187,131.669 40.352,131.836 41.5,132.5C 39.8712,133.625 38.3712,134.959 37,136.5C 36.5439,137.744 37.0439,138.577 38.5,139C 35.8823,141.106 33.8823,143.606 32.5,146.5C 31.8476,145.551 31.5143,144.385 31.5,143C 32.0432,140.08 32.5432,137.247 33,134.5C 31.1706,136.156 29.8372,138.156 29,140.5C 28.2751,137.623 28.7751,134.957 30.5,132.5C 30.3333,132.167 30.1667,131.833 30,131.5C 29.0513,133.093 27.8846,134.426 26.5,135.5C 26.278,132.61 26.9447,129.943 28.5,127.5C 28.1543,126.304 27.6543,126.304 27,127.5C 26.3333,128.833 25.6667,130.167 25,131.5C 24.2751,128.623 24.7751,125.957 26.5,123.5C 26.1543,122.304 25.6543,122.304 25,123.5C 24.3333,124.833 23.6667,126.167 23,127.5C 22.892,124.313 23.7253,121.313 25.5,118.5C 25.1543,117.304 24.6543,117.304 24,118.5C 23.1376,120.087 22.4709,121.754 22,123.5C 21.8464,118.128 23.6797,113.461 27.5,109.5C 24.4636,110.382 22.2969,112.715 21,116.5C 20.8201,113.691 21.4868,111.024 23,108.5C 26.2467,104.341 29.2467,100.008 32,95.5C 31.2004,85.5173 33.2004,76.184 38,67.5C 38.9133,48.5118 45.7466,32.0118 58.5,18C 60.5,17.3333 62.5,17.3333 64.5,18C 65.5505,19.3848 66.8839,20.3848 68.5,21C 78.2133,32.3781 87.5466,44.0447 96.5,56C 104.278,56.1878 111.945,57.1878 119.5,59C 129.704,60.0705 139.704,59.0705 149.5,56C 157.5,52.6667 165.5,49.3333 173.5,46C 175.134,45.5065 176.801,45.3398 178.5,45.5C 178.699,48.941 178.199,52.2744 177,55.5C 171.931,66.6427 166.097,77.3094 159.5,87.5 Z"/></g>
<g><path style="opacity:1" fill="#ececec" d="M 172.5,48.5 C 175.166,48.0658 176.333,49.0658 176,51.5C 174.004,53.8272 171.504,55.3272 168.5,56C 169.167,56.3333 169.833,56.6667 170.5,57C 168.285,58.0438 165.952,58.7105 163.5,59C 165.167,59.3333 166.833,59.6667 168.5,60C 165.5,61 162.5,62 159.5,63C 162.593,63.0697 165.593,62.7364 168.5,62C 163.762,64.5811 158.762,66.5811 153.5,68C 157.879,67.538 162.212,66.8713 166.5,66C 160.954,68.9398 155.287,71.6065 149.5,74C 155.086,73.4673 160.419,72.1339 165.5,70C 159.563,73.2174 154.063,77.0507 149,81.5C 146.036,77.5342 142.703,73.8675 139,70.5C 138.333,69.8333 138.333,69.1667 139,68.5C 150.478,62.1848 161.645,55.5182 172.5,48.5 Z"/></g>
<g><path style="opacity:1" fill="#8d8d8d" d="M 70.5,45.5 C 67.9407,45.1984 65.6074,45.5318 63.5,46.5C 61.4727,46.6621 59.4727,46.4955 57.5,46C 61.9436,44.4389 66.277,44.2723 70.5,45.5 Z"/></g>
<g><path style="opacity:1" fill="#919191" d="M 70.5,39.5 C 71.9217,39.7086 73.255,40.2086 74.5,41C 70.6437,41.1773 66.977,41.6773 63.5,42.5C 61.8008,42.6602 60.1341,42.4935 58.5,42C 59.1667,41.6667 59.8333,41.3333 60.5,41C 64.0252,40.8213 67.3586,40.3213 70.5,39.5 Z"/></g>
<g><path style="opacity:1" fill="#6b6b6b" d="M 70.5,30.5 C 73.1864,31.9881 72.8531,32.6547 69.5,32.5C 68.1266,32.6567 66.7932,32.49 65.5,32C 67.3817,31.8019 69.0484,31.3019 70.5,30.5 Z"/></g>
<g><path style="opacity:1" fill="#f0f0f0" d="M 70.5,30.5 C 69.0484,31.3019 67.3817,31.8019 65.5,32C 66.7932,32.49 68.1266,32.6567 69.5,32.5C 69.9175,33.2216 70.5842,33.7216 71.5,34C 68.8333,34.3333 66.1667,34.6667 63.5,35C 66.2321,35.413 68.8987,36.0797 71.5,37C 68.1667,37.3333 64.8333,37.6667 61.5,38C 64.5131,38.5022 67.5131,39.0022 70.5,39.5C 67.3586,40.3213 64.0252,40.8213 60.5,41C 59.8333,41.3333 59.1667,41.6667 58.5,42C 60.1341,42.4935 61.8008,42.6602 63.5,42.5C 67.4102,42.2628 71.0769,43.0961 74.5,45C 73.2068,45.49 71.8734,45.6567 70.5,45.5C 66.277,44.2723 61.9436,44.4389 57.5,46C 59.4727,46.4955 61.4727,46.6621 63.5,46.5C 69.8048,46.7429 75.8048,48.2429 81.5,51C 77.6891,51.0926 73.8558,50.9259 70,50.5C 66.7421,50.4933 63.5755,50.9933 60.5,52C 69.0111,51.948 77.0111,53.948 84.5,58C 78.6105,56.7697 72.6105,56.4364 66.5,57C 73.4581,58.8763 80.1247,61.543 86.5,65C 87.6956,65.6543 87.6956,66.1543 86.5,66.5C 82.7361,64.559 78.7361,63.559 74.5,63.5C 73.0536,62.3871 71.3869,62.2204 69.5,63C 70.5634,64.1882 71.8967,64.6882 73.5,64.5C 80.5733,65.6288 86.9066,68.2955 92.5,72.5C 90.2543,71.5448 87.921,70.8782 85.5,70.5C 83.7749,69.095 81.7749,68.595 79.5,69C 81.087,69.8624 82.7536,70.5291 84.5,71C 83.5,71.3333 82.5,71.6667 81.5,72C 83.3453,73.128 85.3453,73.628 87.5,73.5C 92.6598,75.7547 92.6598,76.588 87.5,76C 88.8333,77 90.1667,78 91.5,79C 83.0918,76.7906 82.7585,77.4573 90.5,81C 86.9156,80.9508 84.9156,81.4508 84.5,82.5C 83.7375,83.2679 82.7375,83.7679 81.5,84C 81.8333,84.3333 82.1667,84.6667 82.5,85C 81.552,85.4828 80.552,85.6495 79.5,85.5C 74.4083,85.4968 74.4083,86.3301 79.5,88C 75.7559,88.9285 72.2559,88.4285 69,86.5C 68.8333,86.8333 68.6667,87.1667 68.5,87.5C 69.6651,88.5836 70.9984,89.4169 72.5,90C 71.552,90.4828 70.552,90.6495 69.5,90.5C 65.9639,89.3987 62.6305,87.732 59.5,85.5C 58.9717,84.2794 58.305,83.1127 57.5,82C 59.3292,82.4023 60.9959,83.0689 62.5,84C 59.6667,79.1667 55.8333,75.3333 51,72.5C 49.5694,79.3041 51.736,84.6375 57.5,88.5C 57.8333,88.3333 58.1667,88.1667 58.5,88C 55.8394,84.472 56.1727,83.972 59.5,86.5C 61.6489,88.7458 64.3156,90.2458 67.5,91C 63.5979,91.8878 59.9312,91.3878 56.5,89.5C 51.4568,86.9504 47.9568,82.9504 46,77.5C 41.5516,56.7893 46.385,38.6227 60.5,23C 63.9472,21.8907 66.6138,22.8907 68.5,26C 67.8333,26.3333 67.1667,26.6667 66.5,27C 68.0441,27.2896 69.3774,27.9563 70.5,29C 67.9028,29.7792 67.9028,30.2792 70.5,30.5 Z"/></g>
<g><path style="opacity:1" fill="#8a8a8a" d="M 74.5,63.5 C 73.8333,63.5 73.5,63.8333 73.5,64.5C 71.8967,64.6882 70.5634,64.1882 69.5,63C 71.3869,62.2204 73.0536,62.3871 74.5,63.5 Z"/></g>
<g><path style="opacity:1" fill="#6c6c6c" d="M 62.5,79.5 C 62.2964,77.3146 61.6298,75.3146 60.5,73.5C 60.631,72.7611 60.4643,72.0944 60,71.5C 57.4066,69.4514 54.9066,67.2848 52.5,65C 58.4924,67.1532 62.8257,71.3198 65.5,77.5C 64.5585,77.4895 63.8919,77.9895 63.5,79C 64.5925,83.3269 64.2592,83.4936 62.5,79.5 Z"/></g>
<g><path style="opacity:1" fill="#8f8f8f" d="M 85.5,70.5 C 86.5511,71.2223 87.2178,72.2223 87.5,73.5C 85.3453,73.628 83.3453,73.128 81.5,72C 82.5,71.6667 83.5,71.3333 84.5,71C 82.7536,70.5291 81.087,69.8624 79.5,69C 81.7749,68.595 83.7749,69.095 85.5,70.5 Z"/></g>
<g><path style="opacity:1" fill="#aeaeae" d="M 92.5,72.5 C 94.0269,72.427 95.0269,73.0937 95.5,74.5C 93.9731,74.573 92.9731,73.9063 92.5,72.5 Z"/></g>
<g><path style="opacity:1" fill="#232222" d="M 59.5,85.5 C 59.5,85.8333 59.5,86.1667 59.5,86.5C 56.1727,83.972 55.8394,84.472 58.5,88C 58.1667,88.1667 57.8333,88.3333 57.5,88.5C 51.736,84.6375 49.5694,79.3041 51,72.5C 55.8333,75.3333 59.6667,79.1667 62.5,84C 60.9959,83.0689 59.3292,82.4023 57.5,82C 58.305,83.1127 58.9717,84.2794 59.5,85.5 Z"/></g>
<g><path style="opacity:1" fill="#303030" d="M 60.5,73.5 C 61.6298,75.3146 62.2964,77.3146 62.5,79.5C 58.6865,75.5368 55.1865,71.5368 52,67.5C 54.9502,69.3867 57.7835,71.3867 60.5,73.5 Z"/></g>
<g><path style="opacity:1" fill="#aaa6a7" d="M 95.5,74.5 C 98.0892,75.4194 100.089,77.086 101.5,79.5C 98.9108,78.5806 96.9108,76.914 95.5,74.5 Z"/></g>
<g><path style="opacity:1" fill="#e1dfe0" d="M 159.5,76.5 C 160.239,76.369 160.906,76.5357 161.5,77C 158.016,79.8537 154.683,82.5204 151.5,85C 150.483,83.9505 150.316,82.7839 151,81.5C 153.682,79.415 156.516,77.7483 159.5,76.5 Z"/></g>
<g><path style="opacity:1" fill="#9f9d9e" d="M 101.5,79.5 C 103.017,79.5106 104.184,80.1772 105,81.5C 106.602,83.3687 107.602,85.3687 108,87.5C 105.218,85.2295 103.051,82.5628 101.5,79.5 Z"/></g>
<g><path style="opacity:1" fill="#8e8c8d" d="M 122.5,81.5 C 123.097,81.7352 123.43,82.2352 123.5,83C 123.07,83.9654 122.404,84.4654 121.5,84.5C 120.732,85.2625 120.232,86.2625 120,87.5C 118.682,84.5698 118.015,81.5698 118,78.5C 118.862,80.087 119.529,81.7536 120,83.5C 120.155,81.144 120.155,78.8107 120,76.5C 120.757,78.3146 121.59,79.9812 122.5,81.5 Z"/></g>
<g><path style="opacity:1" fill="#707070" d="M 141.5,82.5 C 140.732,83.2625 140.232,84.2625 140,85.5C 139.16,82.7983 138.327,80.1317 137.5,77.5C 138.397,76.4019 139.23,76.4019 140,77.5C 140.608,79.1545 141.108,80.8211 141.5,82.5 Z"/></g>
<g><path style="opacity:1" fill="#919091" d="M 156.5,84.5 C 157.562,82.2435 159.228,81.0768 161.5,81C 160.211,82.8022 158.544,83.9688 156.5,84.5 Z"/></g>
<g><path style="opacity:1" fill="#999798" d="M 84.5,82.5 C 91.3499,84.1399 98.0166,86.3066 104.5,89C 96.2295,87.1533 87.8961,85.9867 79.5,85.5C 80.552,85.6495 81.552,85.4828 82.5,85C 82.1667,84.6667 81.8333,84.3333 81.5,84C 82.7375,83.7679 83.7375,83.2679 84.5,82.5 Z"/></g>
<g><path style="opacity:1" fill="#b9b7b8" d="M 156.5,84.5 C 155.471,86.5168 154.471,88.5168 153.5,90.5C 152.395,91.6005 151.062,92.2671 149.5,92.5C 150.919,88.9704 153.252,86.3037 156.5,84.5 Z"/></g>
<g><path style="opacity:1" fill="#757374" d="M 59.5,85.5 C 62.6305,87.732 65.9639,89.3987 69.5,90.5C 68.2617,90.81 68.2617,91.31 69.5,92C 63.4149,92.8608 57.4149,92.5275 51.5,91C 53.3817,90.8019 55.0484,90.3019 56.5,89.5C 59.9312,91.3878 63.5979,91.8878 67.5,91C 64.3156,90.2458 61.6489,88.7458 59.5,86.5C 59.5,86.1667 59.5,85.8333 59.5,85.5 Z"/></g>
<g><path style="opacity:1" fill="#4d4c4d" d="M 159.5,87.5 C 159.279,90.0673 158.612,92.4006 157.5,94.5C 155.271,91.9064 153.105,92.2398 151,95.5C 150.552,93.7756 149.718,93.109 148.5,93.5C 148.624,92.8933 148.957,92.56 149.5,92.5C 151.062,92.2671 152.395,91.6005 153.5,90.5C 155.483,89.5294 157.483,88.5294 159.5,87.5 Z"/></g>
<g><path style="opacity:1" fill="#817f80" d="M 104.5,99.5 C 103.167,99.5 101.833,99.5 100.5,99.5C 100.44,98.9569 100.107,98.6236 99.5,98.5C 97.9222,99.6405 96.2555,100.14 94.5,100C 98.745,95.7753 102.078,95.6086 104.5,99.5 Z"/></g>
<g><path style="opacity:1" fill="#dcdadb" d="M 100.5,99.5 C 101.833,99.5 103.167,99.5 104.5,99.5C 105.94,101.42 105.607,103.087 103.5,104.5C 102.281,103.737 101.281,102.737 100.5,101.5C 99.6667,102.5 98.8333,103.5 98,104.5C 97.253,102.072 98.0863,100.406 100.5,99.5 Z"/></g>
<g><path style="opacity:1" fill="#b4b2b3" d="M 59.5,105.5 C 56.2655,104.424 52.9322,103.757 49.5,103.5C 47.0314,102.683 44.3647,102.183 41.5,102C 57.5751,97.9457 71.5751,101.612 83.5,113C 79.0099,110.755 74.3433,108.422 69.5,106C 66.05,104.571 62.7167,104.405 59.5,105.5 Z"/></g>
<g><path style="opacity:1" fill="#e4e3e4" d="M 95.5,101.5 C 95.8394,105.611 97.1728,109.444 99.5,113C 107.322,114.188 111.155,110.688 111,102.5C 114.849,107.909 114.016,112.409 108.5,116C 99.7397,117.784 94.4063,114.284 92.5,105.5C 93.2858,103.959 94.2858,102.626 95.5,101.5 Z"/></g>
<g><path style="opacity:1" fill="#b0afaf" d="M 44.5,107.5 C 46.0419,108.163 47.7086,108.83 49.5,109.5C 49.0431,110.298 48.3764,110.631 47.5,110.5C 44.6461,109.619 41.6461,109.453 38.5,110C 40.2872,108.681 42.2872,107.848 44.5,107.5 Z"/></g>
<g><path style="opacity:1" fill="#d5d4d5" d="M 114.5,105.5 C 115.117,105.611 115.617,105.944 116,106.5C 116.498,109.817 116.665,113.15 116.5,116.5C 114.801,116.66 113.134,116.494 111.5,116C 114.1,113.016 115.1,109.516 114.5,105.5 Z"/></g>
<g><path style="opacity:1" fill="#a7a6a7" d="M 63.5,106.5 C 67.054,107.105 69.7206,108.939 71.5,112C 76.1667,114.667 80.8333,117.333 85.5,120C 84.5,120.667 83.5,120.667 82.5,120C 77.73,116.619 72.73,113.786 67.5,111.5C 67.9382,111.565 68.2716,111.399 68.5,111C 64.9015,109.986 61.2348,109.153 57.5,108.5C 59.6309,107.831 61.6309,107.165 63.5,106.5 Z"/></g>
<g><path style="opacity:1" fill="#c5c3c4" d="M 146.5,122.5 C 147.496,122.586 148.329,122.252 149,121.5C 150.399,118.637 151.399,115.637 152,112.5C 153.122,117.919 151.289,121.919 146.5,124.5C 145.537,124.03 145.537,123.363 146.5,122.5 Z"/></g>
<g><path style="opacity:1" fill="#cfcecf" d="M 44.5,110.5 C 45.9516,111.302 47.6183,111.802 49.5,112C 44.8836,115.044 44.217,118.378 47.5,122C 45.6063,123.079 45.273,124.413 46.5,126C 45.9558,126.717 45.2891,127.217 44.5,127.5C 42.9867,126.691 41.3201,126.524 39.5,127C 40.8333,126 42.1667,125 43.5,124C 42.1667,124 40.8333,124 39.5,124C 40.8333,123 42.1667,122 43.5,121C 42.451,120.508 41.451,120.674 40.5,121.5C 40.891,120.282 40.2244,119.448 38.5,119C 40.0009,117.748 41.6675,116.748 43.5,116C 42.5,115.667 41.5,115.333 40.5,115C 41.8333,114.333 43.1667,113.667 44.5,113C 39.3221,112.435 39.3221,111.602 44.5,110.5 Z"/></g>
<g><path style="opacity:1" fill="#808080" d="M 40.5,129.5 C 41.9527,129.929 43.6194,130.096 45.5,130C 44.0161,130.662 42.6828,131.496 41.5,132.5C 40.352,131.836 39.0187,131.669 37.5,132C 38.3734,130.955 39.3734,130.122 40.5,129.5 Z"/></g>
<g><path style="opacity:1" fill="#252525" d="M 133.5,127.5 C 137.226,127.177 140.893,127.511 144.5,128.5C 144.931,129.293 145.265,130.127 145.5,131C 142.323,134.528 139.49,138.362 137,142.5C 137.127,145.383 137.793,148.05 139,150.5C 137.207,149.03 135.207,148.03 133,147.5C 128.993,149.272 124.826,149.772 120.5,149C 125.825,148.338 130.658,146.505 135,143.5C 136.373,141.305 136.706,138.971 136,136.5C 133.806,134.306 131.64,132.14 129.5,130C 131.32,129.8 132.653,128.966 133.5,127.5 Z"/></g>
<g><path style="opacity:1" fill="#a2a2a2" d="M 134.5,128.5 C 137.568,128.547 140.568,129.047 143.5,130C 140.167,130.667 136.833,130.667 133.5,130C 134.056,129.617 134.389,129.117 134.5,128.5 Z"/></g>
<g><path style="opacity:1" fill="#4a4a4a" d="M 49.5,143.5 C 48.8333,143.5 48.1667,143.5 47.5,143.5C 53.5852,139.745 60.2519,137.245 67.5,136C 80.07,133.645 92.7367,132.978 105.5,134C 86.123,133.433 67.4564,136.599 49.5,143.5 Z"/></g>
<g><path style="opacity:1" fill="#c8c8c8" d="M 32.5,146.5 C 32.44,147.043 32.1067,147.376 31.5,147.5C 30.7022,145.922 30.2022,144.256 30,142.5C 29.6667,143.167 29.3333,143.833 29,144.5C 27.8502,141.582 27.0169,138.582 26.5,135.5C 27.8846,134.426 29.0513,133.093 30,131.5C 30.1667,131.833 30.3333,132.167 30.5,132.5C 28.7751,134.957 28.2751,137.623 29,140.5C 29.8372,138.156 31.1706,136.156 33,134.5C 32.5432,137.247 32.0432,140.08 31.5,143C 31.5143,144.385 31.8476,145.551 32.5,146.5 Z"/></g>
<g><path style="opacity:1" fill="#414141" d="M 47.5,155.5 C 63.5872,144.139 81.5872,138.639 101.5,139C 82.2876,140.799 64.2876,146.299 47.5,155.5 Z"/></g>
<g><path style="opacity:1" fill="#8e8e8e" d="M 47.5,143.5 C 48.1667,143.5 48.8333,143.5 49.5,143.5C 47.8984,145.074 45.8984,145.741 43.5,145.5C 44.5137,144.326 45.847,143.66 47.5,143.5 Z"/></g>
<g><path style="opacity:1" fill="#989898" d="M 154.5,140.5 C 154.47,141.497 154.97,142.164 156,142.5C 160.989,143.941 165.822,145.774 170.5,148C 164.751,147.032 159.084,145.532 153.5,143.5C 153.263,142.209 153.596,141.209 154.5,140.5 Z"/></g>
<g><path style="opacity:1" fill="#909090" d="M 105.5,143.5 C 107.347,143.234 108.014,143.568 107.5,144.5C 104.912,145.194 102.579,146.36 100.5,148C 99.1667,148.667 97.8333,148.667 96.5,148C 99.5919,146.454 102.592,144.954 105.5,143.5 Z"/></g>
<g><path style="opacity:1" fill="#616161" d="M 43.5,145.5 C 40.4137,148.223 37.0804,150.723 33.5,153C 32.8333,153.667 32.1667,153.667 31.5,153C 35.0518,149.727 39.0518,147.227 43.5,145.5 Z"/></g>
<g><path style="opacity:1" fill="#3c3c3c" d="M 85.5,155.5 C 86.7158,153.549 88.3825,152.049 90.5,151C 91.7589,150.018 93.0922,149.685 94.5,150C 91.7777,152.358 88.7777,154.191 85.5,155.5 Z"/></g>
<g><path style="opacity:1" fill="#848484" d="M 153.5,149.5 C 157.542,150.851 160.875,153.185 163.5,156.5C 159.808,154.656 156.475,152.323 153.5,149.5 Z"/></g>
<g><path style="opacity:1" fill="#7f7f7f" d="M 159.5,149.5 C 163.505,150.498 166.839,152.498 169.5,155.5C 165.827,154 162.494,152 159.5,149.5 Z"/></g>
<g><path style="opacity:1" fill="#9d9d9d" d="M 149.5,151.5 C 154.144,154.114 155.977,157.781 155,162.5C 153.333,160.167 151.667,157.833 150,155.5C 149.184,154.177 148.017,153.511 146.5,153.5C 146.973,152.094 147.973,151.427 149.5,151.5 Z"/></g>
<g><path style="opacity:1" fill="#3d3d3d" d="M 59.5,164.5 C 59.369,163.761 59.5357,163.094 60,162.5C 73.1941,149.486 89.0274,142.319 107.5,141C 89.0599,144.182 73.0599,152.016 59.5,164.5 Z"/></g>
<g><path style="opacity:1" fill="#dadada" d="M 153.5,143.5 C 153.369,144.239 153.536,144.906 154,145.5C 155.98,146.749 157.813,148.082 159.5,149.5C 162.494,152 165.827,154 169.5,155.5C 173.051,156.186 173.217,157.186 170,158.5C 169.035,156.74 167.868,156.406 166.5,157.5C 167.5,158.833 168.5,160.167 169.5,161.5C 167.161,160.884 165.161,159.218 163.5,156.5C 160.875,153.185 157.542,150.851 153.5,149.5C 152.5,149.5 151.5,149.5 150.5,149.5C 151.514,147.426 152.514,145.426 153.5,143.5 Z"/></g>
<g><path style="opacity:1" fill="#525252" d="M 47.5,155.5 C 47.0269,156.906 46.0269,157.573 44.5,157.5C 44.9731,156.094 45.9731,155.427 47.5,155.5 Z"/></g>
<g><path style="opacity:1" fill="#848484" d="M 44.5,157.5 C 43.4382,159.757 41.7715,160.923 39.5,161C 40.7893,159.198 42.4559,158.031 44.5,157.5 Z"/></g>
<g><path style="opacity:1" fill="#484848" d="M 85.5,155.5 C 82.5,159.167 79.1667,162.5 75.5,165.5C 77.8333,161.167 81.1667,157.833 85.5,155.5 Z"/></g>
<g><path style="opacity:1" fill="#686868" d="M 75.5,165.5 C 75.5386,166.756 75.0386,167.756 74,168.5C 73.4153,167.002 73.9153,166.002 75.5,165.5 Z"/></g>
<g><path style="opacity:1" fill="#9a9a9a" d="M 59.5,164.5 C 56.1044,169.613 52.9377,174.946 50,180.5C 51.3532,174.132 54.5199,168.799 59.5,164.5 Z"/></g>
</svg>
